<svg width="377" height="377" viewBox="0 0 377 377" fill="none" xmlns="http://www.w3.org/2000/svg">
<circle cx="117.5" cy="106.5" r="49.5" fill="#00AADF"/>
<path d="M55.0532 273.898L0 305.363V326C0 354.167 22.8335 377 51 377H326C354.167 377 377 354.167 377 326V115L334.421 226.25C324.856 251.24 297.888 264.893 272.085 257.806L245.302 250.45C228.869 245.937 211.267 249.762 198.19 260.688L179.115 276.625C162.115 290.829 137.982 292.703 118.993 281.294L107.638 274.471C91.505 264.778 71.3935 264.558 55.0532 273.898Z" fill="#00AADF"/>
<path d="M0 51C0 22.8335 22.8335 0 51 0H326C354.167 0 377 22.8335 377 51V326C377 354.167 354.167 377 326 377H51C22.8335 377 0 354.167 0 326V51Z" fill="black" fill-opacity="0.1"/>
</svg>
