<svg width="385" height="385" viewBox="0 0 385 385" fill="none" xmlns="http://www.w3.org/2000/svg">
<circle cx="121.5" cy="110.5" r="49.5" fill="#00AADF"/>
<path d="M59.0532 277.898L4 309.363V330C4 358.167 26.8335 381 55 381H330C358.167 381 381 358.167 381 330V119L338.421 230.25C328.856 255.24 301.888 268.893 276.085 261.806L249.302 254.45C232.869 249.937 215.267 253.762 202.19 264.688L183.115 280.625C166.115 294.829 141.982 296.703 122.993 285.294L111.638 278.471C95.505 268.778 75.3935 268.558 59.0532 277.898Z" fill="#00AADF"/>
<path d="M4 54C4 26.3858 26.3858 4 54 4H299H346C365.33 4 381 19.67 381 39V86V331C381 358.614 358.614 381 331 381H54C26.3858 381 4 358.614 4 331V54Z" fill="black" fill-opacity="0.1" stroke="black" stroke-width="8"/>
</svg>
