<svg width="146" height="146" viewBox="0 0 146 146" fill="none" xmlns="http://www.w3.org/2000/svg">
<path d="M20.8571 21C15.3255 21 10.0204 23.2037 6.10892 27.1262C2.19744 31.0488 0 36.369 0 41.9163V104.665C0 110.213 2.19744 115.533 6.10892 119.455C10.0204 123.378 15.3255 125.582 20.8571 125.582H78.2143C83.7459 125.582 89.051 123.378 92.9625 119.455C96.874 115.533 99.0714 110.213 99.0714 104.665V41.9163C99.0714 36.369 96.874 31.0488 92.9625 27.1262C89.051 23.2037 83.7459 21 78.2143 21H20.8571ZM128.202 120.352L109.5 101.598V44.984L128.202 26.2291C134.765 19.6404 146 24.3048 146 33.6195V112.962C146 122.277 134.765 126.941 128.202 120.352Z" fill="#A0D9EB"/>
</svg>
