<svg width="146" height="146" viewBox="0 0 146 146" fill="none" xmlns="http://www.w3.org/2000/svg">
<path d="M18.25 55C20.6466 55 23.0198 55.472 25.234 56.3892C27.4482 57.3063 29.46 58.6506 31.1547 60.3453C32.8494 62.04 34.1937 64.0518 35.1108 66.266C36.028 68.4802 36.5 70.8534 36.5 73.25C36.5 75.6466 36.028 78.0198 35.1108 80.234C34.1937 82.4482 32.8494 84.46 31.1547 86.1547C29.46 87.8494 27.4482 89.1937 25.234 90.1108C23.0198 91.0279 20.6466 91.5 18.25 91.5C13.4098 91.5 8.76784 89.5772 5.3453 86.1547C1.92276 82.7322 0 78.0902 0 73.25C0 68.4098 1.92276 63.7678 5.3453 60.3453C8.76784 56.9228 13.4098 55 18.25 55V55ZM73 55C75.3966 55 77.7698 55.472 79.984 56.3892C82.1982 57.3063 84.21 58.6506 85.9047 60.3453C87.5994 62.04 88.9437 64.0518 89.8608 66.266C90.7779 68.4802 91.25 70.8534 91.25 73.25C91.25 75.6466 90.7779 78.0198 89.8608 80.234C88.9437 82.4482 87.5994 84.46 85.9047 86.1547C84.21 87.8494 82.1982 89.1937 79.984 90.1108C77.7698 91.0279 75.3966 91.5 73 91.5C68.1598 91.5 63.5178 89.5772 60.0953 86.1547C56.6728 82.7322 54.75 78.0902 54.75 73.25C54.75 68.4098 56.6728 63.7678 60.0953 60.3453C63.5178 56.9228 68.1598 55 73 55V55ZM127.75 55C130.147 55 132.52 55.472 134.734 56.3892C136.948 57.3063 138.96 58.6506 140.655 60.3453C142.349 62.04 143.694 64.0518 144.611 66.266C145.528 68.4802 146 70.8534 146 73.25C146 75.6466 145.528 78.0198 144.611 80.234C143.694 82.4482 142.349 84.46 140.655 86.1547C138.96 87.8494 136.948 89.1937 134.734 90.1108C132.52 91.0279 130.147 91.5 127.75 91.5C122.91 91.5 118.268 89.5772 114.845 86.1547C111.423 82.7322 109.5 78.0902 109.5 73.25C109.5 68.4098 111.423 63.7678 114.845 60.3453C118.268 56.9228 122.91 55 127.75 55V55Z" fill="#A0D9EB"/>
</svg>
