<svg width="146" height="146" viewBox="0 0 146 146" fill="none" xmlns="http://www.w3.org/2000/svg">
<path d="M119.455 86.25C117.574 86.25 115.999 85.614 114.729 84.342C113.455 83.0744 112.818 81.5021 112.818 79.625V66.375H99.5455C97.6651 66.375 96.0901 65.739 94.8204 64.467C93.5462 63.1994 92.9091 61.6271 92.9091 59.75C92.9091 57.8729 93.5462 56.2984 94.8204 55.0264C96.0901 53.7588 97.6651 53.125 99.5455 53.125H112.818V39.875C112.818 37.9979 113.455 36.4234 114.729 35.1514C115.999 33.8838 117.574 33.25 119.455 33.25C121.335 33.25 122.91 33.8838 124.18 35.1514C125.454 36.4234 126.091 37.9979 126.091 39.875V53.125H139.364C141.244 53.125 142.819 53.7588 144.089 55.0264C145.363 56.2984 146 57.8729 146 59.75C146 61.6271 145.363 63.1994 144.089 64.467C142.819 65.739 141.244 66.375 139.364 66.375H126.091V79.625C126.091 81.5021 125.454 83.0744 124.18 84.342C122.91 85.614 121.335 86.25 119.455 86.25ZM53.0909 73C45.7909 73 39.5417 70.4052 34.3432 65.2156C29.1447 60.026 26.5455 53.7875 26.5455 46.5C26.5455 39.2125 29.1447 32.974 34.3432 27.7844C39.5417 22.5948 45.7909 20 53.0909 20C60.3909 20 66.6401 22.5948 71.8386 27.7844C77.0371 32.974 79.6364 39.2125 79.6364 46.5C79.6364 53.7875 77.0371 60.026 71.8386 65.2156C66.6401 70.4052 60.3909 73 53.0909 73ZM6.63636 126C4.75606 126 3.18103 125.364 1.91127 124.092C0.637091 122.824 0 121.252 0 119.375V107.45C0 103.696 0.968909 100.244 2.90673 97.0951C4.84012 93.9505 7.41061 91.55 10.6182 89.8938C17.4758 86.4708 24.4439 83.9025 31.5227 82.1889C38.6015 80.4796 45.7909 79.625 53.0909 79.625C60.3909 79.625 67.5803 80.4796 74.6591 82.1889C81.7379 83.9025 88.7061 86.4708 95.5636 89.8938C98.7712 91.55 101.342 93.9505 103.275 97.0951C105.213 100.244 106.182 103.696 106.182 107.45V119.375C106.182 121.252 105.545 122.824 104.271 124.092C103.001 125.364 101.426 126 99.5455 126H6.63636Z" fill="#A0D9EB"/>
</svg>
