<svg width="420" height="416" viewBox="0 0 420 416" fill="none" xmlns="http://www.w3.org/2000/svg">
<circle cx="117.5" cy="145.5" r="49.5" fill="#00AADF"/>
<path d="M55.0532 312.898L0 344.363V365C0 393.167 22.8335 416 51 416H326C354.167 416 377 393.167 377 365V154L334.421 265.25C324.856 290.24 297.888 303.893 272.085 296.806L245.302 289.45C228.869 284.937 211.267 288.762 198.19 299.688L179.115 315.625C162.115 329.829 137.982 331.703 118.993 320.294L107.638 313.471C91.505 303.778 71.3935 303.558 55.0532 312.898Z" fill="#00AADF"/>
<path d="M0 90C0 61.8335 22.8335 39 51 39H326C354.167 39 377 61.8335 377 90V365C377 393.167 354.167 416 326 416H51C22.8335 416 0 393.167 0 365V90Z" fill="black" fill-opacity="0.1"/>
<rect x="293" y="72" width="16" height="127" rx="8" transform="rotate(-90 293 72)" fill="#003545"/>
<rect x="364" y="127" width="16" height="127" rx="7.99999" transform="rotate(180 364 127)" fill="#003545"/>
</svg>
